<?xml version="1.0" encoding="UTF-8"?>
<!DOCTYPE svg PUBLIC "-//W3C//DTD SVG 1.1//EN" "http://www.w3.org/Graphics/SVG/1.1/DTD/svg11.dtd">
<!-- Creator: CorelDRAW X8 -->
<svg xmlns="http://www.w3.org/2000/svg" xml:space="preserve" width="1600px" height="1600px" version="1.1" style="shape-rendering:geometricPrecision; text-rendering:geometricPrecision; image-rendering:optimizeQuality; fill-rule:evenodd; clip-rule:evenodd"
viewBox="0 0 1600 1600"
 xmlns:xlink="http://www.w3.org/1999/xlink">
 <defs>
  <style type="text/css">
   <![CDATA[
    .fil0 {fill:#0092B2}
   ]]>
  </style>
 </defs>
 <g id="Capa_x0020_1">
  <metadata id="CorelCorpID_0Corel-Layer"/>
  <path class="fil0" d="M637 488c5,6 191,110 202,116 34,19 67,39 102,58 18,9 91,53 102,57 -9,-44 -25,-95 -37,-138l-23 -84c-3,-11 -1,-9 -11,-12 -86,-30 -177,-34 -267,-16 -25,5 -45,13 -68,19z"/>
  <path class="fil0" d="M983 1421c-5,-6 -19,-12 -25,-16l-178 -100c-33,-19 -67,-39 -101,-57 -17,-10 -92,-54 -102,-58 2,17 50,185 60,222 2,11 1,9 10,12 12,4 23,7 35,11 74,20 155,22 232,5 32,-7 49,-15 69,-19z"/>
  <path class="fil0" d="M344 1128c6,-7 24,-41 29,-51 10,-16 19,-34 29,-51l57 -101c19,-34 39,-67 58,-101 10,-18 19,-33 29,-51 6,-11 26,-44 28,-52 -20,3 -48,13 -69,19l-153 42c-10,2 -8,0 -12,10 -33,96 -36,203 -7,301 3,12 8,23 11,35z"/>
  <path class="fil0" d="M1045 1188c21,-4 49,-13 69,-18 24,-7 46,-13 70,-19 22,-6 45,-13 67,-19 27,-7 26,1 39,-49 19,-76 23,-155 6,-233 -8,-33 -14,-45 -20,-68 -6,5 -24,41 -30,50 -9,17 -19,34 -28,51l-115 202c-10,18 -19,33 -29,51 -8,14 -23,38 -29,52z"/>
  <path class="fil0" d="M1141 953c6,-6 98,-170 111,-193 10,-18 10,-14 -1,-33 -6,-12 -11,-23 -18,-33 -22,-34 -39,-58 -66,-84 -30,-30 -48,-47 -84,-70 -15,-10 -46,-30 -66,-37l124 450z"/>
  <path class="fil0" d="M811 1285c7,7 170,98 193,112 18,10 15,9 33,-1 37,-20 59,-34 92,-60 11,-9 16,-15 26,-24l26 -26c28,-37 63,-76 80,-124l-450 123z"/>
  <path class="fil0" d="M359 748l449 -124c-5,-6 -164,-95 -193,-112 -17,-10 -14,-9 -33,1 -38,20 -89,54 -117,85 -18,19 -27,25 -48,53 -8,10 -15,19 -22,30 -10,16 -29,47 -36,67z"/>
  <path class="fil0" d="M603 1406l-124 -450c-6,6 -65,112 -74,128 -13,22 -25,43 -37,65 -11,18 -10,14 0,33 28,52 29,48 61,92l50 51c20,16 30,26 57,45 15,9 48,29 67,36z"/>
 </g>
</svg>
